<svg width="93" height="68" viewBox="0 0 93 68" fill="none" xmlns="http://www.w3.org/2000/svg">
<path d="M32 40L18.5 17.5C17.6667 16.8333 15.5 15.7 13.5 16.5C11 17.5 7.50002 19.5 6.50002 22C5.50002 24.5 6.50002 24 9.00002 38.5C11.5 53 10 41 18.5 49.5C27 58 21 50 29 49.5C37 49 30.5 48.5 32 46.5C33.2 44.9 32.5 41.5 32 40Z" fill="#D52941"/>
<path d="M64.7089 31.9324C61.8254 38.1992 59.1726 44.4275 56.0969 50.4637C54.0592 54.4237 51.714 58.2683 49.0227 61.8438C44.4091 68.0338 41.2181 68.7258 34.3361 65.3425C23.1482 59.8062 13.7288 52.04 6.38546 41.8901C2.88682 36.9689 0.426234 31.6248 0.0417684 25.4349C-0.227358 21.0905 0.8107 17.0536 2.96371 13.2858C6.5008 7.13435 12.6523 5.05824 19.2266 7.78794C23.9555 9.74872 27.5695 13.2089 30.8759 16.9767C34.5284 21.1674 38.027 25.5118 41.641 29.7409C42.5637 30.8559 43.7171 31.3557 44.9858 30.3945C46.2161 29.4718 46.2161 28.2415 45.5241 26.9728C45.1781 26.3576 44.8705 25.7041 44.4476 25.1658C42.333 22.7052 40.1416 20.2446 37.9501 17.861C37.1427 16.9767 36.22 16.2077 35.1435 15.2081C39.7186 10.0178 44.0247 4.71222 49.7917 0.906003C51.5602 -0.285841 53.6748 -0.208948 55.5202 0.598431C58.5959 1.94406 61.7101 3.36659 64.5167 5.21202C73.7054 11.2097 82.1637 18.1301 89.8146 26.0116C90.6219 26.819 91.3909 27.7033 92.0445 28.626C94.0052 31.4326 92.8518 34.6621 89.4685 34.8159C85.0856 35.0081 80.6643 34.739 76.3198 34.2008C72.4367 33.7778 68.592 32.7013 64.7089 31.9324ZM25.3781 46.6959C26.5315 47.6571 28.1462 47.5802 29.0305 46.4268C30.4086 44.5623 30.0036 42.8247 28.5691 41.3903C24.4004 36.9307 15.3337 30.7039 16.4969 23.6279C16.766 22.0516 15.728 20.9367 14.2286 20.5138C12.7676 20.1293 11.5373 20.6676 10.8453 22.0132C6.10649 30.7009 19.9472 42.2256 25.3781 46.6959Z" fill="#E8E8E8"/>
</svg>
