<svg width="56" height="56" viewBox="0 0 56 56" fill="none" xmlns="http://www.w3.org/2000/svg">
<path fill-rule="evenodd" clip-rule="evenodd" d="M47.8409 8.13818C42.5766 2.89297 35.5756 0.00307617 28.1171 0C12.7482 0 0.240065 12.4479 0.233883 27.7474C0.231822 32.6382 1.5156 37.4124 3.95575 41.6206L0 56L14.7813 52.1411C18.8542 54.3522 23.4395 55.5174 28.1058 55.5187H28.1175C43.4847 55.5187 55.9942 43.0698 56 27.7696C56.0031 20.3547 53.1055 13.3831 47.8409 8.13818ZM28.1171 50.8324H28.1075C23.9491 50.8307 19.8708 49.7185 16.312 47.6174L15.4661 47.1174L6.69468 49.4074L9.03591 40.8963L8.48469 40.0237C6.16475 36.3515 4.9397 32.107 4.94176 27.7491C4.94657 15.0326 15.3432 4.68672 28.1264 4.68672C34.3166 4.68877 40.1355 7.09092 44.5109 11.4505C48.8863 15.8102 51.2945 21.605 51.2925 27.7679C51.287 40.4855 40.891 50.8324 28.1171 50.8324ZM40.8292 33.5583C40.1327 33.211 36.7072 31.5342 36.0684 31.3024C35.4303 31.071 34.9653 30.9559 34.5013 31.6497C34.0366 32.3436 32.7017 33.9056 32.2951 34.368C31.8884 34.8308 31.4825 34.8889 30.7856 34.5416C30.0888 34.1947 27.8441 33.4623 25.1828 31.1001C23.1118 29.2616 21.7137 26.991 21.307 26.2972C20.9011 25.6026 21.3036 25.2636 21.6127 24.8821C22.3669 23.95 23.1221 22.9729 23.3543 22.5104C23.5868 22.0476 23.4704 21.6426 23.2959 21.2957C23.1221 20.9487 21.7288 17.5359 21.1484 16.1472C20.5824 14.7957 20.0085 14.9782 19.5806 14.957C19.1746 14.9369 18.7099 14.9328 18.2453 14.9328C17.7809 14.9328 17.0261 15.1061 16.3873 15.8006C15.7488 16.4948 13.9492 18.172 13.9492 21.5848C13.9492 24.9977 16.4456 28.2946 16.7939 28.7574C17.1421 29.2202 21.7068 36.2236 28.6955 39.2267C30.3577 39.9417 31.6552 40.3679 32.6674 40.6875C34.3365 41.2152 35.8548 41.1407 37.0555 40.9623C38.3942 40.763 41.1771 39.2848 41.7582 37.6653C42.3386 36.0456 42.3386 34.6575 42.1642 34.368C41.9904 34.0789 41.5257 33.9056 40.8292 33.5583Z" fill="#E8E8E8"/>
</svg>
