<svg width="72" height="64" viewBox="0 0 72 64" fill="none" xmlns="http://www.w3.org/2000/svg">
<path d="M0 25.7039C0 11.508 11.5081 0 25.704 0H36H46.296C60.4919 0 72 11.508 72 25.7039C72 29.6867 68.7713 32.9153 64.7886 32.9153H7.21139C3.22865 32.9153 0 29.6867 0 25.7039Z" fill="#E8E8E8"/>
<rect y="37.6776" width="72" height="9.55606" rx="4.77803" fill="#D52941"/>
<path d="M0 55.0428C0 53.3601 1.36413 51.996 3.04686 51.996H68.9531C70.6359 51.996 72 53.3601 72 55.0428C72 59.8106 68.135 63.6756 63.3672 63.6756H8.63277C3.86502 63.6756 0 59.8106 0 55.0428Z" fill="#E8E8E8"/>
</svg>
