<svg width="72" height="64" viewBox="0 0 72 64" fill="none" xmlns="http://www.w3.org/2000/svg">
<path d="M31.7812 64H40.2188C43.3204 64 45.8438 61.5034 45.8438 58.4348V54.2609C45.8438 48.2161 48.7747 44.47 51.8777 40.5038C55.1334 36.3424 58.5 32.0394 58.5 25.0435C58.5 21.5066 57.6402 17.9859 56.0136 14.8621C55.658 14.1792 54.8099 13.9105 54.1195 14.2624C53.4291 14.6143 53.1578 15.4534 53.5134 16.1365C54.956 18.907 55.6875 21.9037 55.6875 25.0435C55.6875 31.0883 52.7566 34.8344 49.6536 38.8006C46.6194 42.6787 43.4905 46.6808 43.0782 52.8696H28.9216C28.5095 46.6808 25.3804 42.6787 22.3463 38.8006C19.2434 34.8344 16.3125 31.0883 16.3125 25.0435C16.3125 14.3032 25.1443 5.56522 36 5.56522C39.2576 5.56522 42.4842 6.36828 45.3312 7.88758C46.0149 8.25266 46.8678 8 47.2365 7.32355C47.6052 6.64737 47.35 5.80327 46.6664 5.43861C43.4105 3.70101 39.7221 2.78261 36 2.78261C23.5935 2.78261 13.5 12.7687 13.5 25.0435C13.5 32.0394 16.8666 36.3424 20.1223 40.5038C23.2253 44.47 26.1562 48.2159 26.1562 54.2609V58.4348C26.1562 61.5033 28.6796 64 31.7812 64ZM28.9688 55.6522H43.0312V58.4348C43.0312 59.9691 41.7696 61.2174 40.2188 61.2174H31.7812C30.2304 61.2174 28.9688 59.9691 28.9688 58.4348V55.6522Z" fill="#065AA2"/>
<path d="M70.5938 23.6522H65.5312C64.7546 23.6522 64.125 24.2752 64.125 25.0435C64.125 25.8118 64.7546 26.4348 65.5312 26.4348H70.5938C71.3704 26.4348 72 25.8118 72 25.0435C72 24.2752 71.3704 23.6522 70.5938 23.6522Z" fill="#065AA2"/>
<path d="M1.40625 23.6522C0.629578 23.6522 0 24.2752 0 25.0435C0 25.8118 0.629578 26.4348 1.40625 26.4348H6.46875C7.24542 26.4348 7.875 25.8118 7.875 25.0435C7.875 24.2752 7.24542 23.6522 6.46875 23.6522H1.40625Z" fill="#065AA2"/>
<path d="M60.9006 0.407374C60.3515 -0.135791 59.461 -0.135791 58.9118 0.407374L55.8869 3.40007C55.3378 3.94337 55.3378 4.82435 55.8869 5.36779C56.4362 5.9111 57.3265 5.9111 57.8758 5.36779L60.9006 2.3751C61.4498 1.83179 61.4498 0.950817 60.9006 0.407374Z" fill="#065AA2"/>
<path d="M13.1289 49.6391L16.113 46.6867C16.6621 46.1434 16.6621 45.2625 16.113 44.719C15.5638 44.1759 14.6734 44.1759 14.1241 44.719L11.1401 47.6714C10.5909 48.2147 10.5909 49.0957 11.1401 49.6391C11.6895 50.1824 12.5798 50.1824 13.1289 49.6391Z" fill="#065AA2"/>
<path d="M16.113 5.36779C16.6621 4.82449 16.6621 3.94351 16.113 3.40007L13.0882 0.407374C12.539 -0.135791 11.6486 -0.135791 11.0993 0.407374C10.5501 0.950678 10.5501 1.83165 11.0993 2.3751L14.1241 5.36779C14.6736 5.9111 15.5639 5.91096 16.113 5.36779Z" fill="#065AA2"/>
<path d="M58.8711 49.6391C59.4204 50.1824 60.3107 50.1824 60.86 49.6391C61.4091 49.0958 61.4091 48.2148 60.86 47.6714L57.8759 44.719C57.3268 44.1759 56.4363 44.1759 55.8871 44.719C55.3379 45.2623 55.3379 46.1433 55.8871 46.6867L58.8711 49.6391Z" fill="#065AA2"/>
<path d="M51.0469 11.8261C51.8235 11.8261 52.4531 11.2032 52.4531 10.4348C52.4531 9.66639 51.8235 9.04348 51.0469 9.04348C50.2702 9.04348 49.6406 9.66639 49.6406 10.4348C49.6406 11.2032 50.2702 11.8261 51.0469 11.8261Z" fill="#065AA2"/>
</svg>
