<svg width="17" height="17" viewBox="0 0 17 17" fill="none" xmlns="http://www.w3.org/2000/svg">
<path fill-rule="evenodd" clip-rule="evenodd" d="M14.5231 2.47052C12.925 0.878223 10.7997 0.000933837 8.53555 0C3.86998 0 0.0728768 3.77883 0.0710001 8.42332C0.0703746 9.90802 0.460093 11.3573 1.20085 12.6348L0 17L4.48719 15.8286C5.72359 16.4998 7.11555 16.8535 8.53211 16.8539H8.53566C13.2007 16.8539 16.9982 13.0748 17 8.43007C17.0009 6.1791 16.1213 4.06271 14.5231 2.47052ZM8.53555 15.4313H8.53263C7.27027 15.4307 6.0322 15.0931 4.95187 14.4553L4.69508 14.3035L2.03231 14.9987L2.74305 12.415L2.57571 12.1501C1.87144 11.0353 1.49955 9.74678 1.50018 8.42384C1.50164 4.56346 4.65776 1.42275 8.53837 1.42275C10.4175 1.42338 12.184 2.1526 13.5122 3.47606C14.8405 4.79951 15.5716 6.55865 15.5709 8.42955C15.5693 12.2902 12.4133 15.4313 8.53555 15.4313ZM12.3946 10.1873C12.1831 10.0819 11.1433 9.57288 10.9493 9.50253C10.7556 9.43228 10.6145 9.39731 10.4736 9.60795C10.3326 9.81858 9.9273 10.2928 9.80386 10.4331C9.68042 10.5736 9.55718 10.5913 9.34564 10.4859C9.1341 10.3805 8.45267 10.1582 7.64477 9.4411C7.01609 8.88298 6.59165 8.1937 6.46821 7.98307C6.34497 7.77223 6.46716 7.6693 6.561 7.5535C6.78995 7.27055 7.01921 6.9739 7.08969 6.83351C7.16028 6.69302 7.12493 6.57007 7.07197 6.46475C7.01921 6.35944 6.59624 5.32339 6.42004 4.90182C6.24822 4.49155 6.074 4.54696 5.9441 4.54053C5.82086 4.53441 5.6798 4.53316 5.53874 4.53316C5.39778 4.53316 5.16862 4.58577 4.9747 4.79661C4.78089 5.00734 4.23457 5.51649 4.23457 6.55253C4.23457 7.58857 4.99243 8.58944 5.09814 8.72993C5.20386 8.87042 6.58956 10.9965 8.71112 11.9081C9.21574 12.1252 9.60962 12.2545 9.91687 12.3516C10.4236 12.5118 10.8845 12.4891 11.249 12.435C11.6554 12.3745 12.5002 11.9257 12.6766 11.4341C12.8528 10.9424 12.8528 10.521 12.7998 10.4331C12.7471 10.3454 12.606 10.2928 12.3946 10.1873Z" fill="#E8E8E8"/>
</svg>
