<svg width="120" height="45" viewBox="0 0 120 45" fill="none" xmlns="http://www.w3.org/2000/svg">
<path d="M35.511 32.3988C36.3221 32.8495 36.5924 33.8408 36.232 34.6519C35.9616 35.1926 34.1592 37.0852 33.3481 37.0852H33.303C32.9876 37.0852 32.4919 36.95 31.3203 36.229C30.5092 35.7333 29.4728 34.9673 28.2562 34.0661C27.0396 33.1649 25.6877 32.0384 24.2007 30.7767C22.7137 29.515 21.0915 28.1181 19.4243 26.6311C18.7934 26.0453 18.3879 25.5947 18.1175 25.1891C17.8021 24.7385 17.6669 24.2879 17.6218 23.8373C17.6218 23.2966 17.6669 22.2151 18.3879 21.6293C19.3342 20.8633 20.731 20.5929 21.5872 20.0071C22.4433 19.4213 22.9841 18.8806 23.5699 18.1596C24.1557 17.4387 24.6063 16.6276 24.8766 15.8165C25.147 15.0054 25.2822 14.1943 25.2822 13.3832C25.2371 12.4369 25.0118 11.5357 24.6063 10.8147C24.2007 10.0487 23.5699 9.41784 22.8489 8.87711C22.0829 8.33638 21.1366 7.93083 20.0551 7.61541C18.9286 7.34504 18.0274 7.07467 16.3151 7.29998C6.04122 8.56168 5.18506 13.5634 4.82457 14.1492C4.05854 15.3659 2.48141 15.8165 1.21971 15.1406C0.273432 14.5998 0.0481289 13.7887 0.00306809 13.248C-0.0419927 12.3017 0.408618 11.3104 1.39996 10.1388C2.30117 9.05735 3.51781 8.02095 5.04988 7.02961C6.58195 6.08334 8.38438 5.22718 10.4572 4.50621C12.53 3.78524 14.783 3.37969 17.1262 3.28957C19.0187 3.19945 20.8212 3.37969 22.4433 3.74017C24.0655 4.10066 25.5525 4.68645 26.7692 5.49755C28.0309 6.26358 29.0222 7.29998 29.7883 8.47156C30.5543 9.6882 30.9598 11.0851 31.05 12.6172C31.095 13.8789 30.9148 15.0955 30.4191 16.177C28.6617 20.1874 24.1106 22.9361 23.3896 23.4317C23.2094 23.5669 23.1643 23.8373 23.3446 23.9725C23.5699 24.1978 35.511 32.3988 35.511 32.3988Z" fill="#E8E8E8"/>
<path d="M17.712 36.184C18.0725 38.5722 13.9719 41.8616 12.2596 39.2932C11.3584 37.9864 11.3584 35.7784 11.088 34.2013C10.8177 32.4439 10.5473 30.7316 10.2769 28.9742C9.69114 25.3694 9.15042 21.7195 8.56463 18.1146C8.38439 17.0782 8.11402 16.0418 8.11402 15.0054C8.06896 13.9239 8.24921 12.7974 9.2856 12.3017C10.7276 11.5808 13.5213 11.8511 13.6565 13.8789C13.9269 17.9343 14.3324 21.9898 15.0534 26.0002C15.4139 28.028 15.8645 30.0557 16.4052 32.0384C16.6305 32.9396 16.9009 33.7958 17.2163 34.6519C17.3966 35.1926 17.6218 35.6432 17.712 36.184Z" fill="#E8E8E8"/>
<path d="M78.1836 11.6707C78.1836 12.0312 78.0935 12.4368 77.9132 12.8423C77.733 13.2479 77.4626 13.6534 77.1472 14.059C76.7867 14.4645 76.3811 14.7799 75.8855 15.0954C75.3898 15.4108 74.804 15.546 74.1281 15.546H74.083C73.4522 15.546 72.9115 15.3207 72.5059 14.9151C72.1004 14.5096 71.8751 13.9688 71.8751 13.2929C71.8751 12.7973 71.9652 12.3016 72.1454 11.851C72.3257 11.4004 72.6411 10.9948 72.9565 10.6794C73.317 10.3189 73.7226 10.0486 74.1732 9.86831C74.6238 9.64301 75.1194 9.55288 75.6602 9.55288C75.7052 9.55288 75.7052 9.55288 75.7503 9.55288C77.9132 9.46276 78.1836 10.9948 78.1836 11.6707Z" fill="#D52941"/>
<path d="M119.144 24.0624C118.243 23.5217 117.116 23.747 116.485 24.513C116.035 25.0538 115.539 25.6395 115.179 25.955C114.458 26.6759 113.692 27.3068 112.88 27.8475C112.114 28.3882 111.303 28.8389 110.447 29.1543C109.681 29.4697 108.87 29.6049 108.104 29.6049H108.059C107.248 29.6049 106.527 29.1543 105.851 28.2531C105.355 27.5321 104.905 26.6759 104.499 25.5945C104.274 24.9636 104.409 24.1976 104.86 23.7019C105.265 23.2513 105.671 22.7106 106.076 22.1248C106.842 21.1335 107.608 19.9619 108.284 18.7452C108.96 17.5286 109.501 16.2218 109.951 14.9151C110.402 13.5632 110.627 12.1213 110.627 10.6793C110.627 9.41764 110.492 8.33619 110.177 7.38991C109.861 6.44363 109.411 5.6776 108.87 5.04675C108.284 4.41589 107.653 3.96529 106.887 3.64986C106.166 3.33444 105.4 3.19925 104.589 3.19925C103.643 3.19925 102.742 3.3795 101.931 3.69492C101.12 4.05541 100.399 4.6412 99.8128 5.40723C99.272 6.17327 98.8214 7.11955 98.5511 8.29113C98.2807 9.41765 98.1005 10.8145 98.1005 12.3917C98.1005 15.1404 98.2807 17.799 98.6412 20.2773C98.7764 21.3588 98.9566 22.3501 99.1819 23.2964C99.3171 23.9272 99.1369 24.5581 98.7313 25.0537C98.5511 25.2791 98.3258 25.5044 98.1455 25.6846C97.4696 26.4056 96.7036 27.0364 95.8925 27.6222C95.1264 28.1629 94.2703 28.6136 93.4592 28.974C92.6932 29.2895 91.8821 29.4697 91.071 29.4697C90.2599 29.4697 89.5389 29.0191 88.863 28.1179C88.3673 27.442 87.8717 26.5408 87.5112 25.4593C87.2859 24.8284 87.421 24.1075 87.8266 23.5667C88.1871 23.1161 88.5926 22.5754 89.0432 21.9896C89.8093 20.9532 90.5302 19.8267 91.2062 18.6101C91.8821 17.3934 92.4228 16.0866 92.8283 14.7348C93.279 13.3379 93.4592 11.941 93.4592 10.4991C93.4592 9.19234 93.2789 8.15594 92.9635 7.20967C92.6481 6.30845 92.1975 5.49735 91.6117 4.8665C91.0259 4.28071 90.3951 3.78504 89.629 3.51468C88.9081 3.24431 88.142 3.10913 87.376 3.10913C86.3846 3.10913 85.4834 3.28937 84.6723 3.64986C83.8612 4.01035 83.1853 4.59614 82.5995 5.36217C82.0588 6.12821 81.6533 7.11954 81.3829 8.24606C81.1125 9.37258 80.9774 10.7244 80.9774 12.3466C80.9774 15.0502 81.2027 17.7088 81.5631 20.2322C81.7434 21.2686 81.9236 22.305 82.1489 23.3414C82.2841 23.9723 82.1489 24.6482 81.6983 25.1439C80.6169 26.3605 79.5805 27.3068 78.6342 27.9376C77.3274 28.7938 76.0207 29.2444 74.7139 29.2895C74.083 29.2895 73.5874 29.1543 73.272 28.8389C72.9565 28.5685 72.7763 28.0278 72.7763 27.3068C72.7763 26.6309 72.8664 25.8648 73.0917 25.0988C73.317 24.2427 73.5874 23.4766 73.9028 22.7106C74.2182 21.9446 74.5337 21.2686 74.8491 20.6829C74.8941 20.6378 74.8941 20.5927 74.9392 20.5026C75.525 19.5113 75.0293 18.2045 73.9479 17.844C73.317 17.6638 72.7763 17.5737 72.3257 17.5737C71.83 17.5737 71.4245 17.7088 71.109 17.9341C70.8387 18.1594 70.6134 18.4749 70.343 19.0607C70.1177 19.6014 69.8924 20.2322 69.622 21.0433C69.3517 21.8544 69.1264 22.7556 68.9011 23.6569C68.6758 24.5581 68.4955 25.4593 68.3153 26.4056C68.135 27.3519 68.09 28.208 68.09 29.0191C68.09 29.6049 68.1801 30.1456 68.3603 30.6864C68.5406 31.2271 68.8109 31.7227 69.1714 32.1734C69.577 32.624 70.0726 32.9394 70.7035 33.2098C71.3343 33.4351 72.0553 33.5702 72.9115 33.5252C74.083 33.4801 75.2546 33.2999 76.3812 32.8943C77.4626 32.5338 78.5441 32.0382 79.6255 31.4073C80.6619 30.7765 81.6082 30.0555 82.5094 29.2895L83.681 28.2981C84.3119 29.7401 84.9878 30.9117 85.7989 31.8129C86.8803 33.1196 88.142 33.7505 89.4939 33.7505C90.5753 33.7505 91.7469 33.5252 92.9635 33.0746C94.1351 32.624 95.3067 32.0832 96.3881 31.4073C97.5147 30.7314 98.5511 29.9654 99.4973 29.1543L100.669 28.1629C101.255 29.65 101.976 30.8666 102.787 31.8129C103.868 33.1196 105.13 33.7955 106.482 33.7955H106.527C107.608 33.7955 108.78 33.5702 109.951 33.1647C111.123 32.7591 112.295 32.2184 113.376 31.5425C114.458 30.9117 115.539 30.1456 116.53 29.3345C117.522 28.4784 118.378 27.7123 119.144 26.9012C119.414 26.6309 119.594 26.4056 119.685 26.2253C119.865 25.955 120 25.6395 120 25.2791C119.955 25.0537 119.82 24.513 119.144 24.0624ZM86.1143 20.0069C86.0242 19.3761 85.934 18.7002 85.8439 17.9341C85.6637 16.4021 85.5736 14.4194 85.5736 12.0762C85.5736 10.9047 85.6186 9.95838 85.7087 9.28246C85.7989 8.60655 85.934 8.06582 86.0692 7.70533C86.2495 7.29979 86.3846 7.16461 86.4297 7.16461C86.5198 7.07448 86.7001 7.07448 86.8353 7.07448C86.8803 7.07448 87.0155 7.07448 87.1957 7.25473C87.376 7.38991 87.6013 7.66027 87.7815 8.02076C88.0068 8.38125 88.1871 8.87692 88.3223 9.46271C88.4574 10.0936 88.5476 10.8596 88.5476 11.7157C88.5476 12.7071 88.4574 13.6984 88.2321 14.6447C88.0519 15.5459 87.7815 16.4471 87.4211 17.3033C87.1056 18.1594 86.7001 18.9255 86.2945 19.6014C86.2945 19.6915 86.2044 19.8718 86.1143 20.0069ZM103.237 20.0069C103.147 19.3761 102.787 14.4194 102.787 12.0762C102.787 10.9497 102.832 10.0034 102.967 9.2374C103.057 8.60655 103.192 8.06582 103.328 7.70533C103.508 7.29979 103.643 7.16461 103.688 7.16461C103.823 7.07448 103.913 7.07448 104.094 7.07448C104.184 7.07448 104.274 7.07448 104.499 7.25473C104.679 7.38991 104.905 7.66027 105.085 8.02076C105.265 8.38125 105.445 8.87692 105.581 9.50777C105.716 10.1386 105.806 10.8596 105.761 11.7608C105.761 12.7972 105.626 13.7885 105.445 14.6898C105.22 15.6811 104.95 16.5373 104.589 17.3483C104.274 18.1144 103.328 19.8718 103.237 20.0069Z" fill="#E8E8E8"/>
<path d="M60.6549 28.8389C60.2944 27.397 59.979 26.0001 59.6185 24.5581C59.3482 23.4767 59.1679 22.3502 59.1229 21.2687C59.1229 20.8632 59.1229 20.4576 59.3932 20.1422C59.934 19.4663 61.466 19.6014 62.2771 19.5113C63.3586 19.3761 64.0795 19.241 64.6203 19.0607C65.2511 18.8805 65.6567 18.6552 65.927 18.3848C66.2425 18.0694 66.3776 17.7089 66.3776 17.2583C66.3776 16.8978 66.2875 16.4923 66.1073 15.9966C66.0622 15.8614 65.9721 15.6812 65.882 15.546C65.5666 14.9602 64.8906 14.6898 64.2598 14.9151C63.7191 15.0954 63.0431 15.2756 62.5475 15.3657C61.7814 15.5009 60.7901 15.6812 59.5284 15.8614C59.1679 15.9065 58.8525 15.6361 58.8525 15.2756C58.8976 8.24613 59.979 5.81284 60.4296 5.09187C60.8352 4.50608 61.2858 4.19065 61.8716 4.19065C62.3672 4.19065 62.908 4.46102 63.4938 5.04681C63.7641 5.36224 64.2598 5.99309 64.7104 6.62394C65.3863 7.57021 66.648 7.88564 67.6394 7.34491C67.8647 7.20973 68.0449 7.11961 68.1801 6.98443C68.9912 6.30851 69.1264 5.58754 69.1264 5.09187C69.1264 4.50608 68.9011 3.92029 68.5406 3.28944C68.1801 2.70365 67.6844 2.16292 67.0536 1.66725C66.4678 1.17158 65.7017 0.766034 64.8906 0.450608C64.0345 0.135182 63.1333 0 62.1419 0C60.6099 0.0450608 59.3031 0.495668 58.2667 1.30676C57.2303 2.11786 56.4192 3.24438 55.7884 4.5962C55.2026 5.94803 54.752 7.57022 54.5267 9.46277C54.3014 11.3103 54.2563 13.338 54.3014 15.546L54.3464 16.4021C54.1662 16.4021 53.9859 16.4472 53.8057 16.4472C53.4001 16.4923 52.9495 16.4923 52.4539 16.5373C51.9582 16.6274 51.5977 16.8077 51.3724 17.1231C51.1471 17.3935 51.057 17.754 51.057 18.1144C51.057 18.3848 51.102 18.7002 51.1922 19.0607C51.4175 19.8268 52.1384 20.3675 52.9495 20.4576C52.9495 20.4576 52.9495 20.4576 52.9946 20.4576C54.2112 20.5477 54.5717 21.4039 53.8057 22.3502C53.7156 22.4403 53.6705 22.5304 53.6254 22.5755C52.9045 23.3866 52.1384 24.1526 51.3273 24.7384C50.5162 25.3692 49.615 25.8649 48.6688 26.2705C47.7225 26.676 46.6861 26.9013 45.6046 26.9914C44.0726 27.1266 42.901 26.9013 42.0448 26.3155C41.6393 26.0451 41.2788 25.7297 41.0084 25.3692C40.738 25.0538 40.9183 24.6032 41.3238 24.468C43.8473 23.6569 45.7398 22.8008 47.0916 21.9446C48.849 20.773 49.7051 19.3761 49.5249 17.754C49.4798 17.1682 49.2996 16.6274 49.0292 16.1318C48.7589 15.6361 48.3533 15.1855 47.8126 14.7799C47.2719 14.4195 46.6861 14.104 45.9651 13.9689C45.2441 13.7886 44.433 13.7435 43.4868 13.8337C42.18 13.9238 40.9634 14.2843 39.927 14.9151C38.8906 15.5009 37.9893 16.312 37.2233 17.2583C36.5023 18.2046 35.9616 19.286 35.6011 20.5027C35.2406 21.7193 35.1505 22.936 35.2406 24.1977C35.4209 26.4958 36.3221 28.2531 37.8542 29.4247C39.3862 30.5963 41.5491 31.0469 44.2978 30.8216C46.0102 30.6864 47.5873 30.371 48.9842 29.8303C50.5163 29.2445 52.7693 27.7124 54.1211 26.7211C54.7069 26.3155 55.518 26.5859 55.6982 27.2618C56.239 29.1994 57.1852 32.579 57.8161 34.4265C58.8525 37.5807 60.745 40.78 63.674 42.5374C66.6931 44.3849 70.2078 44.5201 73.6324 44.2948C75.1194 44.2047 76.6515 43.9793 77.9583 43.2584C78.8144 42.7627 79.7156 41.8164 80.1212 40.9152C80.5267 40.014 80.3014 38.8875 79.1749 38.8875C77.3274 38.8424 75.4349 39.7887 73.5423 39.8788C71.5597 39.9689 69.5319 39.7887 67.6844 39.2029C64.9808 38.3467 63.2684 36.0937 62.3222 33.5252C61.5111 32.0382 61.0605 30.4611 60.6549 28.8389ZM39.972 21.8996V21.8545C39.972 21.8094 39.972 21.7644 39.972 21.7193C39.972 21.6292 39.972 21.494 40.0171 21.3588C40.0171 21.0885 40.1072 20.773 40.1973 20.5477C40.2874 20.1872 40.4226 19.8268 40.6029 19.5113C40.6029 19.4663 40.6479 19.4212 40.693 19.3761C40.8282 19.1058 40.9633 18.8805 41.1436 18.6552C41.459 18.2046 41.8646 17.8891 42.2701 17.6188C42.7207 17.3935 43.1263 17.2583 43.5769 17.2132C43.667 17.2132 43.7571 17.2132 43.8472 17.2132C44.3429 17.2132 44.7034 17.3484 45.0188 17.5737C45.3342 17.8441 45.5145 18.2496 45.5596 18.7453C45.6046 19.1058 45.4694 19.6465 44.433 20.2323C43.7121 20.5928 41.1887 21.9446 40.3325 21.8996C40.1072 21.9897 40.0171 21.9897 39.972 21.8996Z" fill="#E8E8E8"/>
</svg>
