<svg width="64" height="64" viewBox="0 0 64 64" fill="none" xmlns="http://www.w3.org/2000/svg">
<path d="M5.66894 63.6338C6.15693 64.1216 6.94842 64.1219 7.43679 63.6338L19.5434 51.5273C21.1862 49.883 21.4433 47.3693 20.3145 45.4523L24.3708 41.396C28.438 45.0611 33.7803 47.3493 39.6697 47.4933C43.9473 47.597 48.1633 46.5493 51.8665 44.4683C52.4684 44.1301 52.6821 43.3681 52.3439 42.7662C52.0057 42.1645 51.2435 41.9507 50.6419 42.2888C47.3268 44.1517 43.5551 45.0868 39.7306 44.9939C28.0172 44.7074 18.7196 34.945 19.0048 23.2318C19.2871 11.6935 28.7635 2.4996 40.2424 2.4996C52.1626 2.4996 61.783 12.3448 61.4926 24.2681C61.3994 28.0802 60.287 31.7936 58.2761 35.0069C57.9098 35.5922 58.0873 36.3634 58.6724 36.7296C59.2578 37.0959 60.0289 36.9184 60.3952 36.3333C62.6439 32.7402 63.8876 28.5892 63.9919 24.3293C64.3161 11.0136 53.5751 0 40.2417 0C27.4134 0 16.8211 10.2761 16.5056 23.1712C16.3521 29.4758 18.6833 35.2742 22.6031 39.6281L18.5467 43.6846C16.6301 42.556 14.116 42.8131 12.4712 44.4562L0.365114 56.5623C-0.123007 57.0504 -0.123007 57.8419 0.365114 58.3301L5.66894 63.6338ZM14.2387 46.2244C15.2138 45.2503 16.8003 45.2502 17.7747 46.2237C18.7489 47.1987 18.7489 48.7853 17.7751 49.7599L6.5528 60.9822L3.01696 57.4462L14.2387 46.2244Z" fill="#065AA2"/>
<path d="M55.7494 41.2493C56.4398 41.2493 56.9994 40.6896 56.9994 39.9993C56.9994 39.3089 56.4398 38.7493 55.7494 38.7493C55.0591 38.7493 54.4994 39.3089 54.4994 39.9993C54.4994 40.6896 55.0591 41.2493 55.7494 41.2493Z" fill="#065AA2"/>
</svg>
