<svg width="70" height="88" viewBox="0 0 70 88" fill="none" xmlns="http://www.w3.org/2000/svg">
<path d="M13.0057 28.5312V36.4511C11.3035 37.0533 9.9018 38.3199 9.1139 40.0321L5.77042 47.3148C3.61414 52.0152 4.65548 57.5697 8.3622 61.1363L18.0813 70.4847V86.2812C18.0813 87.2305 18.8389 88 19.7732 88H27.3866C28.3208 88 29.0785 87.2305 29.0785 86.2812C29.0785 85.332 28.3208 84.5625 27.3866 84.5625H21.465V69.7452C21.465 69.273 21.2739 68.8217 20.9363 68.4972L10.689 58.6403C8.04125 56.0926 7.29717 52.1247 8.83744 48.7673L12.1799 41.4865C12.9912 39.7238 15.0185 39.0352 16.6777 39.8222L33.391 47.7388C31.0486 50.9523 26.7203 52.1656 23.0177 50.4123L18.4175 48.2329C17.5705 47.8314 16.5639 48.2041 16.1692 49.0641C15.7741 49.9244 16.1406 50.947 16.9873 51.3483L21.5877 53.5279C23.4735 54.421 25.5922 54.8185 27.7805 54.5904C31.3505 58.5087 33.3081 63.5721 33.3081 68.9425C33.3081 69.8918 34.0658 70.6612 35 70.6612C35.9342 70.6612 36.6919 69.8918 36.6919 68.9425C36.6919 63.2995 34.8323 57.9482 31.4102 53.6073C33.9299 52.4686 36.0725 50.4389 37.3267 47.7068C37.3273 47.7055 37.3277 47.7041 37.3284 47.7027C38.1687 48.0834 39.0977 48.2969 40.0756 48.2969C41.5861 48.2969 42.9826 47.7912 44.1099 46.938C45.1964 49.2632 47.5295 50.875 50.2268 50.875C51.2688 50.875 52.2564 50.634 53.1389 50.2049C52.6722 53.2904 51.9163 56.1038 51.1326 59.0153C49.8556 63.76 48.535 68.6661 48.535 74.9375V84.5625H42.6134C41.6792 84.5625 40.9215 85.332 40.9215 86.2812C40.9215 87.2305 41.6792 88 42.6134 88H50.2268C51.1611 88 51.9187 87.2305 51.9187 86.2812V74.9375C51.9187 69.1278 53.1223 64.6561 54.3966 59.9222C55.6736 55.1775 56.9943 50.2714 56.9943 44V33.6875C56.9943 29.8966 53.9584 26.8125 50.2268 26.8125C48.7163 26.8125 47.3199 27.3182 46.1926 28.1713C45.106 25.8462 42.773 24.2344 40.0756 24.2344C38.5651 24.2344 37.1686 24.74 36.0413 25.5932C34.9548 23.2681 32.6217 21.6562 29.9244 21.6562C27.9046 21.6562 26.0898 22.561 24.8488 23.9912C23.6078 22.561 21.7929 21.6562 19.7732 21.6562C16.0416 21.6562 13.0057 24.7404 13.0057 28.5312ZM46.8431 33.6875C46.8431 31.7921 48.361 30.25 50.2268 30.25C52.0926 30.25 53.6106 31.7921 53.6106 33.6875V44C53.6106 45.8954 52.0926 47.4375 50.2268 47.4375C48.361 47.4375 46.8431 45.8954 46.8431 44V33.6875ZM36.6919 31.1094C36.6919 29.2139 38.2098 27.6719 40.0756 27.6719C41.9414 27.6719 43.4593 29.2139 43.4593 31.1094V41.4219C43.4593 43.3173 41.9414 44.8594 40.0756 44.8594C38.2098 44.8594 36.6919 43.3173 36.6919 41.4219V31.1094ZM26.5407 28.5312C26.5407 26.6358 28.0586 25.0938 29.9244 25.0938C31.7902 25.0938 33.3081 26.6358 33.3081 28.5312V41.4219C33.3081 42.4009 33.512 43.3321 33.8768 44.176L26.5407 40.7012V28.5312ZM16.3894 28.5312C16.3894 26.6358 17.9074 25.0938 19.7732 25.0938C21.639 25.0938 23.1569 26.6358 23.1569 28.5312V39.0985L18.1085 36.7073C17.559 36.4466 16.9806 36.2644 16.3894 36.1613V28.5312Z" fill="#065AA2"/>
<path d="M36.6919 7.90625V1.71875C36.6919 0.769484 35.9342 0 35 0C34.0658 0 33.3081 0.769484 33.3081 1.71875V7.90625C33.3081 8.85552 34.0658 9.625 35 9.625C35.9342 9.625 36.6919 8.85552 36.6919 7.90625Z" fill="#065AA2"/>
<path d="M20.6189 13.5405C21.4282 13.0659 21.7056 12.0149 21.2385 11.1927L18.7007 6.72564C18.2336 5.90339 17.1988 5.62152 16.3896 6.09606C15.5804 6.57061 15.3029 7.62162 15.77 8.44387L18.3078 12.9109C18.7735 13.7306 19.8075 14.0164 20.6189 13.5405Z" fill="#065AA2"/>
<path d="M6.93511 21.8864L2.53794 19.3083C1.72787 18.8335 0.693633 19.1156 0.226846 19.9378C-0.240279 20.7599 0.0371872 21.8111 0.846408 22.2857L5.24358 24.8638C6.04941 25.3361 7.08568 25.0601 7.55467 24.2342C8.02179 23.412 7.74433 22.3609 6.93511 21.8864Z" fill="#065AA2"/>
<path d="M51.6922 12.9111L54.23 8.44405C54.6971 7.62197 54.4196 6.57078 53.6104 6.09623C52.8005 5.62152 51.7664 5.90373 51.2993 6.72581L48.7615 11.1928C48.2944 12.0149 48.5718 13.0661 49.3811 13.5407C50.1871 14.0128 51.223 13.7368 51.6922 12.9111Z" fill="#065AA2"/>
<path d="M64.7564 24.8636L69.1536 22.2855C69.9628 21.8109 70.2403 20.7599 69.7732 19.9377C69.3059 19.1156 68.2714 18.8334 67.4621 19.3081L63.0649 21.8862C62.2557 22.3608 61.9782 23.4118 62.4453 24.234C62.9109 25.0537 63.945 25.3395 64.7564 24.8636Z" fill="#065AA2"/>
<path d="M35 88C35.9344 88 36.6919 87.2305 36.6919 86.2812C36.6919 85.332 35.9344 84.5625 35 84.5625C34.0656 84.5625 33.3081 85.332 33.3081 86.2812C33.3081 87.2305 34.0656 88 35 88Z" fill="#065AA2"/>
</svg>
