<svg width="24" height="24" viewBox="0 0 24 24" fill="none" xmlns="http://www.w3.org/2000/svg">
<path d="M18.9777 14.8671C18.4856 14.3555 17.8921 14.082 17.2631 14.082C16.6392 14.082 16.0406 14.3505 15.5282 14.8621L13.9252 16.4577C13.7934 16.3868 13.6615 16.3209 13.5346 16.2551C13.352 16.1639 13.1796 16.0778 13.0324 15.9866C11.5309 15.0343 10.1663 13.7933 8.85758 12.1876C8.22349 11.3872 7.79738 10.7135 7.48794 10.0297C7.90391 9.64982 8.28944 9.25472 8.66482 8.87481C8.80686 8.73298 8.94889 8.58609 9.09093 8.44426C10.1562 7.38053 10.1562 6.00275 9.09093 4.93903L7.70607 3.55618C7.54882 3.39916 7.38649 3.23706 7.23431 3.07497C6.92994 2.76092 6.61036 2.43674 6.28063 2.13281C5.78858 1.64654 5.20014 1.3882 4.58126 1.3882C3.96239 1.3882 3.36381 1.64654 2.85653 2.13281C2.85146 2.13788 2.85146 2.13788 2.84639 2.14294L1.12166 3.88037C0.472347 4.52873 0.102037 5.31893 0.0208736 6.23576C-0.100872 7.71485 0.335383 9.09263 0.670184 9.99426C1.49197 12.2078 2.71957 14.2593 4.55083 16.4577C6.77269 19.1069 9.44602 21.1989 12.4998 22.6729C13.6665 23.225 15.2239 23.8784 16.9638 23.9899C17.0703 23.9949 17.1819 24 17.2834 24C18.4552 24 19.4393 23.5796 20.2104 22.7438C20.2154 22.7337 20.2256 22.7286 20.2307 22.7185C20.4944 22.3993 20.7988 22.1106 21.1184 21.8016C21.3365 21.594 21.5597 21.3761 21.7778 21.1482C22.28 20.6265 22.5438 20.0186 22.5438 19.3956C22.5438 18.7675 22.275 18.1647 21.7626 17.6582L18.9777 14.8671ZM20.7937 20.201C20.7887 20.206 20.7887 20.201 20.7937 20.201C20.5959 20.4137 20.393 20.6062 20.1749 20.819C19.8451 21.133 19.5103 21.4623 19.1958 21.832C18.6835 22.3791 18.0798 22.6374 17.2885 22.6374C17.2124 22.6374 17.1312 22.6374 17.0551 22.6324C15.5485 22.5361 14.1484 21.9485 13.0984 21.4471C10.2272 20.0591 7.70607 18.0887 5.61103 15.5915C3.88123 13.5096 2.72464 11.5848 1.95866 9.51812C1.48689 8.25684 1.31442 7.27416 1.39051 6.3472C1.44124 5.75455 1.66951 5.26321 2.09055 4.84278L3.82035 3.11549C4.06892 2.88249 4.3327 2.75585 4.59141 2.75585C4.91099 2.75585 5.1697 2.94834 5.33203 3.11043C5.3371 3.11549 5.34218 3.12056 5.34725 3.12563C5.65668 3.41435 5.9509 3.71321 6.26034 4.03233C6.4176 4.19442 6.57992 4.35651 6.74225 4.52367L8.12711 5.90651C8.66482 6.44344 8.66482 6.93985 8.12711 7.47678C7.98 7.62367 7.83796 7.77057 7.69085 7.9124C7.26474 8.34802 6.85892 8.75325 6.4176 9.14834C6.40745 9.15848 6.39731 9.16354 6.39223 9.17367C5.95598 9.60929 6.03714 10.0348 6.12845 10.3235C6.13352 10.3387 6.1386 10.3539 6.14367 10.3691C6.50383 11.2403 7.01111 12.0609 7.78216 13.0385L7.78724 13.0436C9.18731 14.7658 10.6635 16.1082 12.2918 17.1364C12.4998 17.2681 12.7129 17.3745 12.9158 17.4758C13.0984 17.567 13.2709 17.6531 13.418 17.7443C13.4383 17.7544 13.4586 17.7696 13.4788 17.7797C13.6513 17.8658 13.8136 17.9064 13.981 17.9064C14.4021 17.9064 14.6659 17.643 14.7521 17.5569L16.487 15.8245C16.6595 15.6523 16.9334 15.4446 17.253 15.4446C17.5675 15.4446 17.8262 15.6421 17.9834 15.8144C17.9885 15.8194 17.9885 15.8194 17.9936 15.8245L20.7887 18.6155C21.3112 19.1322 21.3112 19.664 20.7937 20.201Z" fill="#D52941"/>
<path d="M12.9716 5.70896C14.3006 5.93184 15.5079 6.55994 16.4718 7.52236C17.4356 8.48478 18.0595 9.69034 18.2878 11.0175C18.3436 11.3518 18.6327 11.5848 18.9625 11.5848C19.0031 11.5848 19.0386 11.5797 19.0791 11.5747C19.4545 11.5139 19.7031 11.1593 19.6422 10.7845C19.3683 9.17874 18.6074 7.71485 17.4457 6.55488C16.2841 5.39491 14.8181 4.63511 13.21 4.36158C12.8346 4.30079 12.4846 4.54899 12.4186 4.91877C12.3527 5.28854 12.5962 5.64818 12.9716 5.70896Z" fill="#D52941"/>
<path d="M23.9896 10.5869C23.5381 7.94279 22.2902 5.53674 20.3727 3.62203C18.4552 1.70732 16.0457 0.461243 13.3977 0.0104253C13.0274 -0.0554245 12.6774 0.197844 12.6114 0.567616C12.5505 0.942453 12.7991 1.29196 13.1745 1.35781C15.5384 1.75798 17.6943 2.87742 19.4089 4.58445C21.1235 6.29654 22.2395 8.44933 22.6402 10.8098C22.696 11.1441 22.9852 11.3771 23.3149 11.3771C23.3555 11.3771 23.391 11.372 23.4316 11.367C23.8019 11.3113 24.0555 10.9567 23.9896 10.5869Z" fill="#D52941"/>
<path d="M9 6L5 2H4.5L3 2.5L1 5.5V9L4.5 15.5C6.5 17.3333 10.6 21 11 21C11.4 21 14.8333 22.3333 16.5 23H18.5L22 20V19L18.5 15.5L17 15L13.5 17L7 11V9L9 7.5V6Z" fill="#D52941"/>
</svg>
