<svg width="22" height="28" viewBox="0 0 22 28" fill="none" xmlns="http://www.w3.org/2000/svg">
<path d="M10.5619 0C4.73789 0 0 4.7379 0 10.5612C0 18.9457 9.42863 27.3685 9.83021 27.7237C10.0402 27.9079 10.3011 28 10.5619 28C10.8331 28 11.1042 27.9005 11.3157 27.7023C11.7158 27.328 21.1238 18.4417 21.1238 10.5619C21.1238 4.73863 16.3844 0 10.5619 0ZM10.5619 15.5975C7.78032 15.5975 5.52632 13.342 5.52632 10.5626C5.52632 7.78326 7.78032 5.52779 10.5619 5.52779C13.342 5.52779 15.596 7.78253 15.596 10.5626C15.596 13.3427 13.342 15.5975 10.5619 15.5975Z" fill="#D52941"/>
</svg>
