<svg width="40" height="40" viewBox="0 0 40 40" fill="none" xmlns="http://www.w3.org/2000/svg">
<path fill-rule="evenodd" clip-rule="evenodd" d="M34.1721 5.81299C30.4119 2.06641 25.4111 0.00219726 20.0837 0C9.10583 0 0.171475 8.89136 0.167059 19.8196C0.165587 23.313 1.08257 26.7231 2.82553 29.729L0 40L10.5581 37.2437C13.4673 38.823 16.7425 39.6553 20.0756 39.6562H20.0839C31.0605 39.6562 39.9958 30.7642 40 19.8354C40.0022 14.5391 37.9325 9.55933 34.1721 5.81299ZM20.0837 36.3088H20.0768C17.1065 36.3076 14.1934 35.5132 11.6515 34.0125L11.0472 33.6553L4.78192 35.291L6.45422 29.2117L6.06049 28.5884C4.4034 25.9653 3.52836 22.9336 3.52983 19.8208C3.53326 10.7375 10.9594 3.34766 20.0903 3.34766C24.5118 3.34912 28.6682 5.06494 31.7935 8.17896C34.9188 11.293 36.6389 15.4321 36.6375 19.8342C36.6335 28.9182 29.2079 36.3088 20.0837 36.3088ZM29.1637 23.9702C28.6662 23.7222 26.2195 22.5244 25.7632 22.3589C25.3074 22.1936 24.9752 22.1113 24.6438 22.6069C24.3119 23.1025 23.3584 24.2183 23.0679 24.5486C22.7774 24.8792 22.4875 24.9207 21.9897 24.6726C21.492 24.4248 19.8886 23.9016 17.9877 22.2144C16.5084 20.9011 15.5098 19.2793 15.2193 18.7837C14.9293 18.2876 15.2169 18.0454 15.4376 17.7729C15.9764 17.1072 16.5158 16.4092 16.6816 16.0789C16.8477 15.7483 16.7645 15.459 16.6399 15.2112C16.5158 14.9634 15.5206 12.5256 15.106 11.5337C14.7017 10.5684 14.2918 10.6987 13.9861 10.6836C13.6962 10.6692 13.3642 10.6663 13.0323 10.6663C12.7007 10.6663 12.1615 10.79 11.7052 11.2861C11.2491 11.782 9.96369 12.98 9.96369 15.4177C9.96369 17.8555 11.7469 20.2104 11.9956 20.541C12.2444 20.8716 15.5049 25.874 20.4968 28.019C21.6841 28.5298 22.6109 28.8342 23.3338 29.0625C24.5261 29.4395 25.6106 29.3862 26.4682 29.2588C27.4244 29.1165 29.4122 28.0605 29.8273 26.9038C30.2419 25.7468 30.2419 24.7554 30.1173 24.5486C29.9931 24.342 29.6612 24.2183 29.1637 23.9702Z" fill="#D52941"/>
</svg>
