<svg width="72" height="59" viewBox="0 0 72 59" fill="none" xmlns="http://www.w3.org/2000/svg">
<path d="M72 43.7143C72 51.7619 55.8823 58.2857 36 58.2857C16.1178 58.2857 0 51.7619 0 43.7143C0 35.6667 16.1178 29.1429 36 29.1429C55.8823 29.1429 72 35.6667 72 43.7143Z" fill="#E8E8E8"/>
<path fill-rule="evenodd" clip-rule="evenodd" d="M66.8005 46.9091C68.1948 45.5747 68.5714 44.495 68.5714 43.7143C68.5714 42.9336 68.1948 41.8539 66.8005 40.5195C65.3973 39.1767 63.1852 37.8095 60.1695 36.5888C54.1559 34.1548 45.6123 32.5714 36 32.5714C26.3877 32.5714 17.8441 34.1548 11.8305 36.5888C8.81482 37.8095 6.6027 39.1767 5.19954 40.5195C3.80518 41.8539 3.42857 42.9336 3.42857 43.7143C3.42857 44.495 3.80518 45.5747 5.19954 46.9091C6.6027 48.2518 8.81482 49.6191 11.8305 50.8397C17.8441 53.2738 26.3877 54.8571 36 54.8571C45.6123 54.8571 54.1559 53.2738 60.1695 50.8397C63.1852 49.6191 65.3973 48.2518 66.8005 46.9091ZM36 58.2857C55.8823 58.2857 72 51.7619 72 43.7143C72 35.6667 55.8823 29.1429 36 29.1429C16.1178 29.1429 0 35.6667 0 43.7143C0 51.7619 16.1178 58.2857 36 58.2857Z" fill="#E8E8E8"/>
<path d="M36 29.1429C55.8823 29.1429 72 22.619 72 14.5714V43.7143H0V14.5714C0 22.619 16.1178 29.1429 36 29.1429Z" fill="#E8E8E8"/>
<path fill-rule="evenodd" clip-rule="evenodd" d="M66.8005 17.7662C68.1948 16.4319 68.5714 15.3521 68.5714 14.5714C68.5714 13.7907 68.1948 12.711 66.8005 11.3767C65.3973 10.0339 63.1852 8.66662 60.1695 7.44598C54.1559 5.01191 45.6123 3.42857 36 3.42857C26.3877 3.42857 17.8441 5.01191 11.8305 7.44598C8.81482 8.66662 6.6027 10.0339 5.19954 11.3767C3.80518 12.711 3.42857 13.7907 3.42857 14.5714C3.42857 15.3521 3.80518 16.4319 5.19954 17.7662C6.6027 19.109 8.81482 20.4762 11.8305 21.6969C17.8441 24.1309 26.3877 25.7143 36 25.7143C45.6123 25.7143 54.1559 24.1309 60.1695 21.6969C63.1852 20.4762 65.3973 19.109 66.8005 17.7662ZM36 29.1429C55.8823 29.1429 72 22.619 72 14.5714C72 6.52385 55.8823 0 36 0C16.1178 0 0 6.52385 0 14.5714C0 22.619 16.1178 29.1429 36 29.1429Z" fill="#E8E8E8"/>
<path d="M60 15C60 18.7871 49.2548 21.8571 36 21.8571C22.7452 21.8571 12 18.7871 12 15C12 11.2129 22.7452 8.14282 36 8.14282C49.2548 8.14282 60 11.2129 60 15Z" fill="#D52941"/>
</svg>
